<svg xmlns="http://www.w3.org/2000/svg" width="1600" height="1000" aria-label="Networked 3D clients synchronising against an authoritative server" role="img" viewBox="0 0 1600 1000"><defs><pattern id="wg" width="64" height="64" patternUnits="userSpaceOnUse"><path fill="none" stroke="#e8eaf2" stroke-opacity=".05" d="M64 0H0V64"/></pattern><linearGradient id="wga" x1="0" x2="1" y1="0" y2="1"><stop offset="0" stop-color="#22d3ee"/><stop offset="1" stop-color="#818cf8"/></linearGradient></defs><rect width="1600" height="1000" fill="#14141b"/><rect width="1600" height="1000" fill="url(#wg)"/><g fill="none" stroke="#22d3ee" stroke-opacity=".3" stroke-width="1.5"><path d="M800 500 L380 300M800 500 L1220 300M800 500 L380 700M800 500 L1220 700"/></g><g fill="none" stroke="#e8eaf2" stroke-opacity=".35" stroke-width="1.6"><path d="M800 330 L940 410v160l-140 80-140-80V410z"/><path stroke="#818cf8" stroke-opacity=".5" d="M800 330v170m0 0 140-80m-140 80-140-80m140 80v170"/></g><circle cx="800" cy="500" r="120" fill="none" stroke="url(#wga)" stroke-opacity=".4" stroke-width="1.5"/><g><rect width="160" height="96" x="300" y="252" fill="#1a1a22" stroke="#e8eaf2" stroke-opacity=".28" rx="10"/><rect width="160" height="96" x="1140" y="252" fill="#1a1a22" stroke="#e8eaf2" stroke-opacity=".28" rx="10"/><rect width="160" height="96" x="300" y="652" fill="#1a1a22" stroke="#e8eaf2" stroke-opacity=".28" rx="10"/><rect width="160" height="96" x="1140" y="652" fill="#1a1a22" stroke="#e8eaf2" stroke-opacity=".28" rx="10"/></g><g fill="#22d3ee"><circle cx="380" cy="300" r="7"/><circle cx="1220" cy="300" r="7"/><circle cx="380" cy="700" r="7"/><circle cx="1220" cy="700" r="7"/></g><g fill="#e8eaf2" fill-opacity=".45" font-family="ui-monospace,monospace" font-size="19" letter-spacing="3"><text x="80" y="110">WEB GAME PLATFORM</text></g><g fill="#e8eaf2" fill-opacity=".26" font-family="ui-monospace,monospace" font-size="17" letter-spacing="2"><text x="80" y="920">COLYSEUS · WEBSOCKETS · AUTHORITATIVE STATE</text><text x="1520" y="110" text-anchor="end">60 TICK</text><text x="1520" y="920" text-anchor="end">THREE.JS</text></g><path stroke="url(#wga)" stroke-width="3" d="M80 140h240"/></svg>